<?xml version="1.0" encoding="UTF-8"?><svg id="a" xmlns="http://www.w3.org/2000/svg" xmlns:xlink="http://www.w3.org/1999/xlink" viewBox="0 0 943.12 956.37"><defs><style>.c{mask:url(#b);}.d{stroke-width:6.83px;}.d,.e,.f{fill:none;}.d,.f{stroke:#181818;}.g{fill:#231f20;font-family:Lekton-Bold, Lekton;font-size:40px;}.h,.e{stroke:#000;stroke-miterlimit:10;stroke-width:1.14px;}.h,.i{fill:#006838;}.j{fill:#181818;}.f{stroke-width:5.49px;}</style><mask id="b" x="-2160.44" y="-119.28" width="3429.6" height="1665.35" maskUnits="userSpaceOnUse"><image transform="translate(1269.15 1122.59) rotate(-180) scale(.24 .26)" xlink:href="../../../../Dropbox/My PC (DESKTOP-IAM82KV)/Downloads/kseniya-lapteva-Ebk7xuIEkZ0-unsplash.jpg"/></mask></defs><path class="j" d="M471.56,27.1c245.47,0,444.46,198.99,444.46,444.46s-198.99,444.46-444.46,444.46S27.1,717.03,27.1,471.56,226.09,27.1,471.56,27.1m0-27.1c-63.65,0-125.41,12.47-183.56,37.07-56.16,23.75-106.58,57.75-149.88,101.05-43.3,43.3-77.3,93.73-101.05,149.88C12.47,346.15,0,407.91,0,471.56s12.47,125.41,37.07,183.56c23.75,56.16,57.75,106.58,101.05,149.88,43.3,43.3,93.73,77.3,149.88,101.05,58.15,24.6,119.91,37.07,183.56,37.07s125.41-12.47,183.56-37.07c56.16-23.75,106.58-57.75,149.88-101.05,43.3-43.3,77.3-93.73,101.05-149.88,24.6-58.15,37.07-119.91,37.07-183.56s-12.47-125.41-37.07-183.56c-23.75-56.16-57.75-106.58-101.05-149.88-43.3-43.3-93.73-77.3-149.88-101.05C596.97,12.47,535.21,0,471.56,0h0Z"/><circle class="d" cx="473.16" cy="471.56" r="426.81"/><text class="g" transform="translate(103.96 607.99) rotate(68.31)"><tspan x="0" y="0">O</tspan></text><text class="g" transform="translate(111.78 627.58) rotate(65.25)"><tspan x="0" y="0">r</tspan></text><text class="g" transform="translate(120.66 646.76) rotate(62.17)"><tspan x="0" y="0">a</tspan></text><text class="g" transform="translate(130.54 665.4) rotate(59.09)"><tspan x="0" y="0">n</tspan></text><text class="g" transform="translate(141.4 683.49) rotate(56)"><tspan x="0" y="0">g</tspan></text><text class="g" transform="translate(153.24 701) rotate(52.91)"><tspan x="0" y="0">e</tspan></text><text class="g" transform="translate(166.02 717.84) rotate(49.81)"><tspan x="0" y="0"> </tspan></text><text class="g" transform="translate(179.66 733.95) rotate(46.71)"><tspan x="0" y="0">C</tspan></text><text class="g" transform="translate(194.17 749.3) rotate(43.61)"><tspan x="0" y="0">o</tspan></text><text class="g" transform="translate(209.47 763.84) rotate(40.53)"><tspan x="0" y="0">u</tspan></text><text class="g" transform="translate(225.54 777.54) rotate(37.46)"><tspan x="0" y="0">n</tspan></text><text class="g" transform="translate(242.31 790.35) rotate(34.41)"><tspan x="0" y="0">t</tspan></text><text class="g" transform="translate(259.78 802.32) rotate(31.17)"><tspan x="0" y="0">y</tspan></text><text class="g" transform="translate(277.68 813.17) rotate(28.38)"><tspan x="0" y="0">,</tspan></text><text class="g" transform="translate(296.27 823.18) rotate(25.32)"><tspan x="0" y="0"> </tspan></text><text class="g" transform="translate(315.36 832.19) rotate(22.24)"><tspan x="0" y="0">C</tspan></text><text class="g" transform="translate(334.92 840.15) rotate(19.15)"><tspan x="0" y="0">a</tspan></text><text class="g" transform="translate(354.89 847.05) rotate(16.06)"><tspan x="0" y="0">l</tspan></text><text class="g" transform="translate(375.18 852.86) rotate(12.96)"><tspan x="0" y="0">i</tspan></text><text class="g" transform="translate(395.77 857.57) rotate(9.86)"><tspan x="0" y="0">f</tspan></text><text class="g" transform="translate(416.59 861.16) rotate(6.77)"><tspan x="0" y="0">o</tspan></text><text class="g" transform="translate(437.57 863.62) rotate(3.68)"><tspan x="0" y="0">r</tspan></text><text class="g" transform="translate(458.66 864.94) rotate(.6)"><tspan x="0" y="0">n</tspan></text><text class="g" transform="translate(479.75 865.14) rotate(-2.46)"><tspan x="0" y="0">i</tspan></text><text class="g" transform="translate(500.83 864.2) rotate(-5.53)"><tspan x="0" y="0">a</tspan></text><text class="g" transform="translate(585.2 111.91) rotate(18.87)"><tspan x="0" y="0">S</tspan></text><text class="g" transform="translate(603.19 118.04) rotate(21.78)"><tspan x="0" y="0">i</tspan></text><text class="g" transform="translate(620.86 125.07) rotate(24.68)"><tspan x="0" y="0">n</tspan></text><text class="g" transform="translate(638.15 132.99) rotate(27.57)"><tspan x="0" y="0">c</tspan></text><text class="g" transform="translate(655.03 141.78) rotate(30.43)"><tspan x="0" y="0">e</tspan></text><text class="g" transform="translate(671.46 151.4) rotate(33.27)"><tspan x="0" y="0"> </tspan></text><text class="g" transform="translate(687.38 161.82) rotate(36.13)"><tspan x="0" y="0">2</tspan></text><text class="g" transform="translate(702.75 173.01) rotate(39.01)"><tspan x="0" y="0">0</tspan></text><text class="g" transform="translate(717.54 184.95) rotate(41.9)"><tspan x="0" y="0">2</tspan></text><text class="g" transform="translate(731.72 197.65) rotate(44.82)"><tspan x="0" y="0">0</tspan></text><path class="f" d="M297.99,172.99c55.76-33.21,121.55-50.99,191.24-47.76,189.32,8.78,335.68,169.38,326.9,358.7-.74,16.06-2.58,31.81-5.44,47.18"/><path class="f" d="M651.13,761.59c-56.28,34.16-122.99,52.53-193.71,49.25-189.32-8.78-335.68-169.38-326.9-358.7"/><g class="c"><g><path class="h" d="M666.26,482.78s-5.97-3.79-7.86-.29c0,0-7.14,14.71-22.43,30,0,0-4.37,4.08-5.24-1.17,0,0,1.17-7.14,1.17-71.65,0,0,1.6-1.75-1.46-5.83,0,0,0-2.04-9.03-5.24,0,0-6.26-2.33-8.16,.87,0,0-2.48,6.7-31.46,58.25,0,0-6.26,13.4-26.5,32.33,0,0-13.4,7.14-11.36-8.74,0,0,1.46-6.84,27.67-71.94,0,0,2.04-3.64-2.04-5.83,0,0-5.39,.15-13.69,0,0,0-3.64-1.31-5.24,2.62,0,0-5.1,10.63-21.84,53.3,0,0-5.24,13.25-17.62,23.74,0,0-4.22,5.39-10.19,6.7,0,0-3.79,.58-5.53-5.53,0,0,.29-6.7,28.54-75.73,0,0,1.31-3.06-2.62-5.24,0,0-3.79-1.02-13.98-.29,0,0-3.64-1.6-5.82,3.5,0,0-1.75,5.97-16.89,42.52,0,0-6.26,16.31-20.68,30-.68,.97-1.43,1.9-2.2,2.8-2.35,2.72-5.01,5.24-8.11,7.08-1.55,.92-3.21,1.67-4.96,2.14-1.13,.3-2.25,.73-3.43,.79-.49,.03-1.13,0-1.52-.35-.56-.51-1-1.59-1.12-2.33-.15-.97-.05-.42-.14-1.39-.18-1.93-.05-5.9,.13-7.83,.32-3.47,1.96-6.58,3.26-9.76,1.5-3.69,3-7.38,4.49-11.08,2.52-6.24,5.02-12.48,7.52-18.72,3.78-9.44,7.56-18.89,11.33-28.34,0,0,2.04-9.03-4.95-4.66,0,0-6.26,5.1-17.77,7.57l-4.08-1.31s-2.77-7.72-10.19-10.64c0,0-5.83-5.82-22.72,1.75,0,0-14.27,2.18-30.87,46.89,0,0-3.5,10.05-16.02,20.68,0,0-7.28,7.86-20.1,7.57,0,0-4.08-.58-4.08-4.95,0,0,19.22-53.45,42.23-108.06,0,0,1.6-2.04-3.2-4.08,0,0-6.55-.15-14.56,.58,0,0-4.22,.29-5.24,3.49,0,0-5.1,13.4-39.32,99.32,0,0-1.6,5.1-4.37,2.91,0,0-4.95-1.46-23.3-13.11,0,0-1.75-2.18-.58-5.53,0,0,14.27-29.56,31.46-75.44,0,0,4.37-11.07,13.4-15.44,0,0,2.62-7.86-2.33-11.65,0,0-2.77-1.31-9.03,0,0,0-9.03,1.89-17.48,9.9,0,0-12.23,2.91-35.24-2.91,0,0-10.63-3.64-18.06-2.62,0,0-36.26-6.99-48.35,26.21,0,0-8.11,30.1,20.1,41.07,0,0,10.92,4.51,26.8-2.04,0,0,7.86-2.33,8.16-6.12,0,0-1.46-8.01-9.9-12.52,0,0-3.35,3.64-12.67,4.81,0,0-8.49-1.07-10.87-4.66-2.13-3.22-8.74-15.15,5.05-26.21,0,0,6.7-3.79,22.72-2.33,0,0,15.44,4.51,36.7,6.12,0,0,7.28,1.75,4.37,6.12,0,0-2.62,12.23-23.88,58.68,0,0-2.48,4.82-5.53,1.61,0,0-4.37-1.89-12.23-3.49,0,0-33.93-10.34-50.97,11.94,0,0-12.09,16.6-5.53,35.82,0,0,24.76,27.81,55.48,14.71,0,0,11.5-.87,26.5-27.09,0,0,2.33-4.95,6.41-3.2,0,0,4.22,1.75,22.14,13.11,0,0,4.08,2.33,2.04,5.53,0,0-1.56,5.37-11.36,26.5,0,0-2.77,2.91-.87,6.12,0,0,4.08,1.89,10.78,11.65,0,0,3.5,2.91,6.41-2.04,0,0,1.6-4.95,13.11-33.2,0,0,.58-4.08,5.53-5.24,0,0,3.5,1.6,20.39-.58,0,0,10.78-.58,19.22-12.23,0,0-3.54,25.15,19.51,25.71,0,0,12.52-.08,23.3-12.9,0,0,4.66-2.62,5.53,.58,0,0,4.22,7.28,9.03,10.19,0,0,6.26,3.2,12.23,1.74,0,0,17.04-3.78,31.31-20.23,0,0,.58,21.99,17.33,20.09,0,0,15,.73,27.96-13.83,0,0,3.93-1.16,4.66,2.62,0,0,1.46,8.88,10.63,10.87,0,0,10.78,1.8,20.97-2.86,0,0,23.59-12.38,50.68-65.53,0,0,3.5-2.77,4.08,3.5,0,0,2.33,10.78,.58,34.66,0,0,.87,7.86-4.37,11.07,0,0-4.81,5.53-13.4,.58,0,0-17.04-1.31-12.82,9.32,0,0,5.1,5.24,12.23,6.99,0,0,14.56,5.83,33.2-1.16,0,0,25.48-9.17,42.52-43.4,0,0,2.33-2.62-1.46-6.7Zm-404.85,13.69c-.29,2.75-3.64,8.17-15.15,16.6,0,0-3.93,5.53-15.15,5.53,0,0-32.33-9.61-9.32-30.29,0,0,20.1-9.32,39.61,3.79,0,0,.46,.02,0,4.37Zm174.68-30.15s-3.35,10.92-14.56,36.26c0,0-1.02,3.06-9.61,10.63,0,0-3.64,4-9.17,4.08,0,0-5.1,.07-7.86-3.79,0,0-5.02-28.91,25.05-61.16,0,0,20.87-11.78,16.16,13.98Z"/><g><path class="h" d="M326.48,628.38c2.7,4.03,.17,9.03,.17,9.03-4.87,4.61-7.47,5.38-7.47,5.38-4.29,4.01-7.57,.14-7.57,.14-10.13-27.63-.91-48.92-.91-48.92,31.99-65.41,97.39-41.72,97.39-41.72,28.19,12.29,35.12,39.84,35.12,39.84,10.17,37.68-24.12,65.7-24.12,65.7-16.94,13.42-42.07,9.81-42.07,9.81-12.24-.94-17.26-4.34-17.26-4.34-3.08-1.4-4.89,3.59-4.89,3.59-13.61,35.79-15.78,44.28-15.78,44.28-.35,4.67-5.74,4.77-5.74,4.77-8.58,.74-14.83,1.44-14.83,1.44-4.1-.94-4.75-4.57-4.75-4.57,39.6-102.4,44.2-113.85,44.2-113.85,8.34-13.85,26.4-21.47,26.4-21.47,5.83,.04,5.89,3.39,5.89,3.39,2.85,4.46,1.88,6.96,1.88,6.96,.2,2.76-2.83,4.71-2.83,4.71-3.76,1.38-6.02,5.36-6.02,5.36-16.1,34.82-18.99,44.05-18.99,44.05-2.22,6.16,4.51,7.49,4.51,7.49,26.05,6.8,37.72-8.28,37.72-8.28,19.07-16.09,16.78-37.31,16.78-37.31-2.27-27.78-25.41-35.07-25.41-35.07-35.42-9.39-58.02,13.02-58.02,13.02-17.94,21.89-15.62,37-15.62,37-.03,5.97,2.22,9.57,2.22,9.57Z"/><path class="h" d="M836.58,655.58c-1.22-2.99-3.57-4.01-3.57-4.01-3.72-1.48-5.75,3.99-5.75,3.99-7.64,17.52-21.4,29.34-21.4,29.34-2.11,1.4-4.47,.08-4.47,.08-3.18-61.21-.79-73.78-.79-73.78,.44-2.53,.12-3.89,.12-3.89-4.48-5.94-14.71-7.69-14.71-7.69-1.6-.02-3.56,1.72-3.56,1.72-28.9,64.43-55.81,89.99-55.81,89.99-12.05,10.13-15.75-1.07-15.75-1.07-1.29-6.68,3.94-17.75,3.94-17.75,22.76-60.53,23.86-63.76,23.86-63.76,1.5-3.14,6.94-3.04,6.94-3.04,4.97,.88,7.96,.05,7.96,.05,7.33-2.56,6.22-10.21,6.22-10.21-1-1.73-5.09-2.04-5.09-2.04-3.48,.74-6.02-.08-6.02-.08-2.52,.14-2.4-3.65-2.4-3.65,5.23-10.97,6.46-18.08,6.46-18.08,1.98-3.24-6.1-4.16-6.1-4.16-5.63-.09-12.22,.81-12.22,.81-3.96,.95-4.76,4.94-4.76,4.94-2.87,12.77-7.23,18.39-7.23,18.39-1.27,4.88-6.94,2.65-6.94,2.65-6.6,.22-8.73,.55-8.73,.55-3.46,1.81-5.52,5.93-5.52,5.93-.68,5.26,4.58,5.94,4.58,5.94,5.04-.39,7.76-.53,7.76-.53,1.97,1.42,1.07,5.22,1.07,5.22-11.39,34.78-22.64,56.26-22.64,56.26-7.1,15.28-23.98,26.08-23.98,26.08-3.35,2.88-6.95,2.07-6.95,2.07-4.96-.3-3.32-11.2-3.32-11.2,13.93-34.25,19.23-51.82,19.23-51.82,6.74-13.62-2.79-24.42-2.79-24.42-7.12-6.76-22.94-1.32-22.94-1.32-8.21,2.58-13.05,8.21-13.05,8.21-1.6,2.94-6.23,1.09-6.23,1.09-6.45-4.35-12.31-6.18-12.31-6.18-4.11-1.48-5.99,1.86-5.99,1.86-11.31,34.2-20.97,52.24-20.97,52.24-11.19,19.34-26.7,31.57-26.7,31.57-10.39,5.44-10.16-3.11-10.16-3.11-1.08-5.71,.6-9.53,.6-9.53,15.02-32.81,16.82-45.95,16.82-45.95,6.99-10.52,8.94-20.75,8.94-20.75,.14-2.62-3.98-4.98-3.98-4.98-6.32,4.88-15.37,8.83-15.37,8.83-3.26,2.2-6.01,.31-6.01,.31-8.67-11.78-12.45-11.61-12.45-11.61-10.46-3.5-19.23-.22-19.23-.22-14.8,8.04-25.38,29.51-25.38,29.51-7.16,11.79-10.04,24.27-10.04,24.27-14.88,24.55-28.67,35.1-28.67,35.1-9.35,3.77-8.94-.61-8.94-.61-4.07-4.78,2-17.71,2-17.71,27.06-69.35,38.12-101.31,38.12-101.31,3.79-5.31-2.98-6.35-2.98-6.35-9.48-.55-13.1,.24-13.1,.24-5.36,1.56-6.02,5.36-6.02,5.36-32.54,82.61-40.21,108.82-40.21,108.82-8.12,33.07,22.97,28.7,22.97,28.7,16.1-3.36,32.12-24.29,32.12-24.29,4.35,35.56,33.96,19.18,33.96,19.18,7.88-4.61,11.28-9.34,11.28-9.34,2.4-1.5,4.09,.89,4.09,.89,16.22,26.01,44.45-1.02,44.45-1.02-.5,4.48,.13,6.99,.13,6.99,.42,1.84,2.75,1.5,2.75,1.5,8.19,1.98,14.38,.7,14.38,.7,4.45-.76,6.08-7.1,6.08-7.1,19.49-53.77,22.73-62.03,22.73-62.03,12.66-13.78,21.27-15.5,21.27-15.5,10.58-.29,7.6,11.7,7.6,11.7-16.19,37.88-17.36,47.9-17.36,47.9-2.09,28.39,17.01,26.81,17.01,26.81,24.76-.27,35.36-19.92,35.36-19.92-2.5,22.28,25.6,18.85,25.6,18.85,9.58-1.54,13.67-6.18,13.67-6.18,18.09-14.03,23.64-23.74,23.64-23.74,16.69-26.63,22.01-38.28,22.01-38.28,2.82-4.91,5.41-1.46,5.41-1.46,3.42,37.42,.82,44.26,.82,44.26-2.2,7.03-9.18,7.55-9.18,7.55-4.64,1.25-9.17-2.35-9.17-2.35l-5.44,.1c-4.42,2.41-6.5,5.36-6.5,5.36-4.66,5.33,15.58,12.72,15.58,12.72,10.72,2.32,22.13-.41,22.13-.41,19.71-5.51,28.9-17.82,28.9-17.82,19.27-23.66,20.42-29.9,20.42-29.9,2.25-4.12-.08-4.47-.08-4.47Zm-302.77,25.65s-5.65,9.62-12.96,13.25c0,0-6.39,.9-9.73-1.18,0,0-4.55-4.38-3.51-11,0,0,2.04-26.26,25.23-52.98,0,0,14.76-10.5,17.46,9.16,0,0-7.23,22.57-16.49,42.74Z"/></g><g><g><path class="i" d="M193.26,254.12c7.96,6.02,8.16,10.49,8.16,10.49-1.36,12.43-24.47,11.65-24.47,11.65-15.73-2.91-22.62-8.95-25.81-15.66-21.18-44.54,30.47-53.08,30.47-53.08,9.13-1.17,29.9,1.94,29.9,1.94,41.75,11.46,67.57,14.37,67.57,14.37,26.02,4.27,41.16-2.72,41.16-2.72,18.45-1.55,13.98,9.32,13.98,9.32-7.96,21.16-59.8,11.33-59.8,11.33-4.85,3.23-5.83,7.7-5.83,7.7l-32.23,79.61c-16.31,45.44-50.1,48.93-50.1,48.93-10.68,2.52-23.3-1.94-23.3-1.94-23.69-11.26-24.47-23.69-24.47-23.69-12.04-53.59,38.06-54.37,38.06-54.37,5.83,10.68,1.55,15.92,1.55,15.92-16.13,5.52-19.9,12.98-21.7,19.77-5.87,22.17,16.26,24.89,16.26,24.89,18.06,2.14,29.13-10.87,29.13-10.87,8.93-4.66,46.6-106.41,46.6-106.41,.97-4.08-4.66-5.05-4.66-5.05-31.07-7.57-58.25-9.71-58.25-9.71-24.08,1.17-24.17,22.82-11.71,29.2,7.44,3.81,19.47-1.63,19.47-1.63Z"/><path class="e" d="M193.26,254.12c7.96,6.02,8.16,10.49,8.16,10.49-1.36,12.43-24.47,11.65-24.47,11.65-15.73-2.91-22.62-8.95-25.81-15.66-21.18-44.54,30.47-53.08,30.47-53.08,9.13-1.17,29.9,1.94,29.9,1.94,41.75,11.46,67.57,14.37,67.57,14.37,26.02,4.27,41.16-2.72,41.16-2.72,18.45-1.55,13.98,9.32,13.98,9.32-7.96,21.16-59.8,11.33-59.8,11.33-4.85,3.23-5.83,7.7-5.83,7.7l-32.23,79.61c-16.31,45.44-50.1,48.93-50.1,48.93-10.68,2.52-23.3-1.94-23.3-1.94-23.69-11.26-24.47-23.69-24.47-23.69-12.04-53.59,38.06-54.37,38.06-54.37,5.83,10.68,1.55,15.92,1.55,15.92-16.13,5.52-19.9,12.98-21.7,19.77-5.87,22.17,16.26,24.89,16.26,24.89,18.06,2.14,29.13-10.87,29.13-10.87,8.93-4.66,46.6-106.41,46.6-106.41,.97-4.08-4.66-5.05-4.66-5.05-31.07-7.57-58.25-9.71-58.25-9.71-24.08,1.17-24.17,22.82-11.71,29.2,7.44,3.81,19.47-1.63,19.47-1.63Z"/></g><path class="h" d="M602.67,317.65c-22.72,36.89-32.23,38.83-32.23,38.83-8.16,7.28-8.93-6.21-8.93-6.21-1.36-1.84,19.42-55.14,19.42-55.14,6.6-11.84,7.77-18.64,7.77-18.64-1.17-3.88-3.88-2.72-3.88-2.72-11.22,6.58-19.42,8.16-19.42,8.16l-3.5-2.33c-3.88-9.61-14.95-11.26-14.95-11.26-21.84,.29-30.1,12.82-30.1,12.82-16.8,26.21-20.39,39.14-20.39,39.14-10.68,22.7-27.38,36.98-27.38,36.98-7.09,2.72-8.35-5.63-8.35-5.63-1.26-4.17,14.76-40.39,14.76-40.39,3.11-9.13-2.72-17.48-2.72-17.48-9.9-12.23-21.16-18.45-21.16-18.45l-.39-3.3c5.44-6.21,5.05-12.43,5.05-12.43-3.79-6.8-11.26-8.35-11.26-8.35-15.24,9.32-14.67,19.61-14.67,19.61-2.42,8.06,3.4,11.46,3.4,11.46,2.91,4.37-3.4,13.2-3.4,13.2-21.45,46.99-41.64,62.33-41.64,62.33-5.34,3.01-6.99-4.85-6.99-4.85-.68-5.05,.97-8.16,.97-8.16,10.06-24.09,13.98-39.03,13.98-39.03,.29-7.67-4.08-13.01-4.08-13.01-8.35-10.19-20.39-17.28-20.39-17.28-2.14-.97,0-3.88,0-3.88,3.88-4.95,4.85-12.43,4.85-12.43-1.94-4.47-10.49-6.99-10.49-6.99-18.35,3.49-15.34,24.85-15.34,24.85,4.17,5.63,3.5,11.46,3.5,11.46-23.88,47.77-37.67,56.12-37.67,56.12-17.57,14.37-29.9,13.98-29.9,13.98-7.86,.39-12.82-2.52-12.82-2.52-4.76-3.11-6.02-7.38-6.02-7.38-4.85-9.22,2.33-17.09,2.33-17.09,25.05,6.02,45.82-11.74,45.82-11.74,13.59-20.11,11.26-30.98,11.26-30.98-1.75-30.48-42.33-17.48-42.33-17.48-57.28,48.46-33.01,92.04-33.01,92.04,12.04,10.29,25.63,9.71,25.63,9.71,29.9-1.36,43.49-16.31,43.49-16.31,28.15-30.48,40.78-60.58,40.78-60.58,2.52-4.27,8.93,0,8.93,0,5.44,5.83,2.72,13.59,2.72,13.59-17.67,35.15-13.59,47.38-13.59,47.38-.78,13.2,14.27,15.93,14.27,15.93,16.02,1.55,23.4-8.55,23.4-8.55,36.31-40.97,42.72-67.57,42.72-67.57,2.72-5.44,6.99-2.72,6.99-2.72,8.35,7.57,6.6,13.59,6.6,13.59-16.31,33.2-14.76,46.21-14.76,46.21-2.14,13.01,13.2,19.2,13.2,19.2,24.85,2.07,37.67-23.47,37.67-23.47-.19,21.94,18.25,23.7,18.25,23.7,19.81,1.35,25.24-12.43,25.24-12.43,3.69-3.11,7.38,.78,7.38,.78,4.85,12.04,15.15,11.75,15.15,11.75,10.68,1.26,20.58-7.48,20.58-7.48,30.87-27.18,34.17-41.94,34.17-41.94-1.36-6.41-8.54-6.6-8.54-6.6Zm-307.96-30.87h10.87s2.33,4.66,0,10.29c0,0-6.8,19.22-16.31,22.14,0,0-10.68,1.55-13.98,0,0,0,1.17-15.34,19.42-32.43Zm260.87,15.8s-2.91,11.94-14.71,36.26c0,0-2.04,4.95-9.47,10.92,0,0-13.18,12.23-17.91-3.49,0,0-.58-25.5,23.88-55.34,0,0,23.34-13.69,18.2,11.65Z"/></g></g></g></svg>